<?xml version="1.0" encoding="utf-8"?>
<!-- Generator: Adobe Illustrator 12.0.0, SVG Export Plug-In . SVG Version: 6.00 Build 51448)  -->
<!DOCTYPE svg PUBLIC "-//W3C//DTD SVG 1.1//EN" "http://www.w3.org/Graphics/SVG/1.1/DTD/svg11.dtd" [
	<!ENTITY ns_svg "http://www.w3.org/2000/svg">
	<!ENTITY ns_xlink "http://www.w3.org/1999/xlink">
]>
<svg  version="1.1" id="Layer_1" xmlns="&ns_svg;" xmlns:xlink="&ns_xlink;" width="32.579" height="31.775"
	 viewBox="0 0 32.579 31.775" overflow="visible" enable-background="new 0 0 32.579 31.775" xml:space="preserve">
<path fill-rule="evenodd" clip-rule="evenodd" fill="#181616" d="M16.288,0C7.293,0,0,7.293,0,16.29
	c0,7.197,4.667,13.302,11.14,15.457c0.815,0.149,1.112-0.354,1.112-0.785c0-0.387-0.014-1.412-0.022-2.771
	c-4.531,0.983-5.487-2.185-5.487-2.185c-0.741-1.881-1.809-2.381-1.809-2.381c-1.479-1.012,0.112-0.992,0.112-0.992
	c1.635,0.117,2.495,1.68,2.495,1.68c1.453,2.489,3.813,1.77,4.741,1.354c0.148-1.053,0.568-1.771,1.034-2.178
	c-3.617-0.41-7.42-1.809-7.42-8.051c0-1.778,0.635-3.232,1.677-4.371c-0.168-0.412-0.727-2.068,0.159-4.311
	c0,0,1.368-0.438,4.48,1.67c1.299-0.361,2.693-0.542,4.078-0.548c1.383,0.006,2.776,0.187,4.078,0.548
	c3.11-2.108,4.475-1.67,4.475-1.67c0.89,2.243,0.33,3.899,0.162,4.311c1.044,1.139,1.675,2.593,1.675,4.371
	c0,6.258-3.809,7.635-7.438,8.038c0.585,0.503,1.105,1.497,1.105,3.017c0,2.178-0.02,3.935-0.02,4.469
	c0,0.436,0.293,0.942,1.12,0.783c6.468-2.158,11.131-8.26,11.131-15.455C32.579,7.293,25.285,0,16.288,0"/>
</svg>
