<?xml version="1.0" encoding="utf-8"?>
<!-- Generator: Adobe Illustrator 12.0.0, SVG Export Plug-In . SVG Version: 6.00 Build 51448)  -->
<!DOCTYPE svg PUBLIC "-//W3C//DTD SVG 1.1//EN" "http://www.w3.org/Graphics/SVG/1.1/DTD/svg11.dtd" [
	<!ENTITY ns_svg "http://www.w3.org/2000/svg">
	<!ENTITY ns_xlink "http://www.w3.org/1999/xlink">
]>
<svg  version="1.1" id="Layer_2" xmlns="&ns_svg;" xmlns:xlink="&ns_xlink;" width="148.516" height="142.344"
	 viewBox="0 0 148.516 142.344" overflow="visible" enable-background="new 0 0 148.516 142.344" xml:space="preserve">
<path fill="#FFFFFF" d="M148.515,75.044H97.533c0,0-17.718-14.825-20.609-31.457c2.169,0-25.31-10.625-10.848-39.412
	c2.248-5.707-33.987-9.763-20.248,27.841c13.74,33.988-9.762,23.501-39.411,32.18c-13.92,4.881,1.085,19.886,1.085,19.886
	s-14.823,15.549,7.594,22.779c0,0-10.485,14.824,6.146,16.996c0,0-14.463,24.584,33.625,16.27c22.418,0,43.389-13.738,43.389-13.738
	s42.306,2.891,46.645,7.23"/>
</svg>
